<svg xmlns="http://www.w3.org/2000/svg" xmlns:xlink="http://www.w3.org/1999/xlink" version="1.1" width="256" height="256" viewBox="0 0 256 256" xml:space="preserve">

<defs>
</defs>
<g style="stroke: none; stroke-width: 0; stroke-dasharray: none; stroke-linecap: butt; stroke-linejoin: miter; stroke-miterlimit: 10; fill: rgb(0,0,0); fill-rule: nonzero; opacity: 1;" transform="translate(0 -2.842170943040401e-14) scale(2.81 2.81)" >
	<circle cx="45" cy="45" r="45" style="stroke: none; stroke-width: 1; stroke-dasharray: none; stroke-linecap: butt; stroke-linejoin: miter; stroke-miterlimit: 10; fill: rgb(0,0,0); fill-rule: nonzero; opacity: 1;" transform="  matrix(1 0 0 1 0 0) "/>
</g>
<g style="stroke: none; stroke-width: 0; stroke-dasharray: none; stroke-linecap: butt; stroke-linejoin: miter; stroke-miterlimit: 10; fill: none; fill-rule: nonzero; opacity: 1;" transform="translate(46.17984832069338 46.17984832069335) scale(1.82 1.82)" >
	<circle cx="49.129000000000005" cy="11.249" r="11.249" style="stroke: none; stroke-width: 1; stroke-dasharray: none; stroke-linecap: butt; stroke-linejoin: miter; stroke-miterlimit: 10; fill: rgb(255,255,255); fill-rule: nonzero; opacity: 1;" transform="  matrix(1 0 0 1 0 0) "/>
	<path d="M 29.747 37.606 c -0.49 2.065 0.529 4.174 2.432 5.116 c 3.044 1.508 4.953 4.88 4.366 8.492 l -4.963 30.516 c -0.603 3.708 1.914 7.203 5.622 7.806 h 0 c 5.489 0.893 11.099 0.494 16.387 -1.15 c 1.521 -0.473 2.671 -1.733 3.039 -3.283 l 0.843 -3.551 c 0.49 -2.065 -0.529 -4.174 -2.432 -5.116 c -3.044 -1.508 -4.953 -4.88 -4.366 -8.492 l 4.963 -30.516 c 0.603 -3.708 -1.914 -7.203 -5.622 -7.806 l 0 0 c -5.489 -0.893 -11.099 -0.494 -16.387 1.15 c -1.521 0.473 -2.671 1.733 -3.039 3.283 L 29.747 37.606 z" style="stroke: none; stroke-width: 1; stroke-dasharray: none; stroke-linecap: butt; stroke-linejoin: miter; stroke-miterlimit: 10; fill: rgb(255,255,255); fill-rule: nonzero; opacity: 1;" transform=" matrix(1 0 0 1 0 0) " stroke-linecap="round" />
</g>
</svg>