<svg xmlns="http://www.w3.org/2000/svg" xmlns:xlink="http://www.w3.org/1999/xlink" version="1.1" width="256" height="256" viewBox="0 0 256 256" xml:space="preserve">

<defs>
</defs>
<g style="stroke: none; stroke-width: 0; stroke-dasharray: none; stroke-linecap: butt; stroke-linejoin: miter; stroke-miterlimit: 10; fill: none; fill-rule: nonzero; opacity: 1;" transform="translate(0 -2.842170943040401e-14) scale(2.81 2.81)" >
	<circle cx="45" cy="45" r="45" style="stroke: none; stroke-width: 1; stroke-dasharray: none; stroke-linecap: butt; stroke-linejoin: miter; stroke-miterlimit: 10; fill: rgb(0,0,0); fill-rule: nonzero; opacity: 1;" transform="  matrix(1 0 0 1 0 0) "/>
</g>
<g style="stroke: none; stroke-width: 0; stroke-dasharray: none; stroke-linecap: butt; stroke-linejoin: miter; stroke-miterlimit: 10; fill: none; fill-rule: nonzero; opacity: 1;" transform="translate(50.63736263736263 50.6373626373626) scale(1.72 1.72)" >
	<path d="M 10.242 6 h 7.794 c 1.657 0 3 -1.343 3 -3 s -1.343 -3 -3 -3 H 3 C 2.803 0 2.606 0.021 2.412 0.059 C 2.325 0.077 2.243 0.11 2.159 0.134 C 2.056 0.164 1.952 0.188 1.852 0.23 C 1.752 0.271 1.66 0.328 1.566 0.38 C 1.489 0.422 1.41 0.456 1.336 0.505 c -0.329 0.22 -0.612 0.503 -0.832 0.832 c -0.048 0.072 -0.081 0.15 -0.122 0.225 C 0.33 1.658 0.272 1.751 0.229 1.853 C 0.188 1.952 0.165 2.055 0.135 2.157 C 0.11 2.242 0.077 2.324 0.059 2.412 C 0.021 2.606 0 2.803 0 3 v 15.037 c 0 1.657 1.343 3 3 3 s 3 -1.343 3 -3 v -7.794 l 26.416 26.416 c 0.585 0.586 1.354 0.879 2.121 0.879 s 1.536 -0.293 2.121 -0.879 c 1.172 -1.171 1.172 -3.071 0 -4.242 L 10.242 6 z" style="stroke: none; stroke-width: 1; stroke-dasharray: none; stroke-linecap: butt; stroke-linejoin: miter; stroke-miterlimit: 10; fill: rgb(255,255,255); fill-rule: nonzero; opacity: 1;" transform=" matrix(1 0 0 1 0 0) " stroke-linecap="round" />
	<path d="M 87 68.963 c -1.657 0 -3 1.343 -3 3 v 7.795 L 57.584 53.342 c -1.172 -1.172 -3.07 -1.172 -4.242 0 c -1.172 1.171 -1.172 3.071 0 4.242 L 79.758 84 h -7.795 c -1.657 0 -3 1.343 -3 3 s 1.343 3 3 3 H 87 c 0.197 0 0.393 -0.021 0.587 -0.059 c 0.092 -0.018 0.178 -0.053 0.267 -0.079 c 0.098 -0.029 0.197 -0.051 0.292 -0.091 c 0.108 -0.045 0.206 -0.105 0.307 -0.162 c 0.069 -0.039 0.142 -0.069 0.208 -0.113 c 0.33 -0.22 0.613 -0.503 0.834 -0.833 c 0.046 -0.069 0.077 -0.144 0.117 -0.216 c 0.055 -0.099 0.114 -0.195 0.158 -0.3 c 0.04 -0.096 0.063 -0.197 0.092 -0.297 c 0.026 -0.088 0.06 -0.172 0.078 -0.263 C 89.979 87.393 90 87.197 90 87 V 71.963 C 90 70.306 88.657 68.963 87 68.963 z" style="stroke: none; stroke-width: 1; stroke-dasharray: none; stroke-linecap: butt; stroke-linejoin: miter; stroke-miterlimit: 10; fill: rgb(255,255,255); fill-rule: nonzero; opacity: 1;" transform=" matrix(1 0 0 1 0 0) " stroke-linecap="round" />
	<path d="M 32.416 53.342 L 6 79.758 v -7.795 c 0 -1.657 -1.343 -3 -3 -3 s -3 1.343 -3 3 V 87 c 0 0.197 0.021 0.394 0.059 0.588 c 0.018 0.089 0.051 0.172 0.077 0.258 c 0.03 0.101 0.053 0.203 0.094 0.301 c 0.043 0.103 0.101 0.197 0.155 0.294 c 0.041 0.074 0.073 0.151 0.12 0.222 c 0.22 0.329 0.503 0.612 0.832 0.832 c 0.071 0.047 0.148 0.08 0.222 0.121 c 0.097 0.054 0.191 0.112 0.294 0.155 c 0.098 0.04 0.199 0.063 0.3 0.093 c 0.087 0.026 0.17 0.059 0.26 0.077 C 2.607 89.979 2.803 90 3 90 h 15.037 c 1.657 0 3 -1.343 3 -3 s -1.343 -3 -3 -3 h -7.794 l 26.416 -26.416 c 1.172 -1.171 1.172 -3.071 0 -4.242 C 35.487 52.17 33.587 52.17 32.416 53.342 z" style="stroke: none; stroke-width: 1; stroke-dasharray: none; stroke-linecap: butt; stroke-linejoin: miter; stroke-miterlimit: 10; fill: rgb(255,255,255); fill-rule: nonzero; opacity: 1;" transform=" matrix(1 0 0 1 0 0) " stroke-linecap="round" />
	<path d="M 89.941 2.413 c -0.018 -0.09 -0.051 -0.173 -0.077 -0.26 c -0.03 -0.1 -0.053 -0.202 -0.093 -0.299 c -0.043 -0.104 -0.102 -0.199 -0.156 -0.297 c -0.04 -0.073 -0.072 -0.149 -0.119 -0.219 c -0.22 -0.33 -0.503 -0.613 -0.833 -0.833 c -0.069 -0.046 -0.143 -0.077 -0.215 -0.116 c -0.099 -0.055 -0.196 -0.115 -0.301 -0.159 c -0.096 -0.04 -0.197 -0.063 -0.297 -0.092 c -0.088 -0.026 -0.172 -0.06 -0.263 -0.078 C 87.393 0.021 87.197 0 87 0 H 71.963 c -1.657 0 -3 1.343 -3 3 s 1.343 3 3 3 h 7.795 L 53.342 32.416 c -1.172 1.171 -1.172 3.071 0 4.242 c 0.586 0.586 1.354 0.879 2.121 0.879 s 1.535 -0.293 2.121 -0.879 L 84 10.242 v 7.794 c 0 1.657 1.343 3 3 3 s 3 -1.343 3 -3 V 3 C 90 2.803 89.979 2.607 89.941 2.413 z" style="stroke: none; stroke-width: 1; stroke-dasharray: none; stroke-linecap: butt; stroke-linejoin: miter; stroke-miterlimit: 10; fill: rgb(255,255,255); fill-rule: nonzero; opacity: 1;" transform=" matrix(1 0 0 1 0 0) " stroke-linecap="round" />
</g>
</svg>