<?xml version="1.0" standalone="no"?>
<!DOCTYPE svg PUBLIC "-//W3C//DTD SVG 20010904//EN"
 "http://www.w3.org/TR/2001/REC-SVG-20010904/DTD/svg10.dtd">
<svg version="1.0" xmlns="http://www.w3.org/2000/svg"
 width="512.000000pt" height="512.000000pt" viewBox="0 0 512.000000 512.000000"
 preserveAspectRatio="xMidYMid meet">

<g transform="translate(0.000000,512.000000) scale(0.100000,-0.100000)"
fill="#000000" stroke="none">
<path d="M2380 4954 c-160 -18 -230 -29 -330 -51 -900 -197 -1601 -880 -1820
-1775 -52 -213 -64 -322 -64 -568 0 -246 13 -358 64 -568 92 -375 262 -706
515 -1000 382 -445 916 -731 1515 -814 123 -17 478 -16 600 1 698 96 1291 459
1679 1026 207 303 338 637 397 1017 25 157 25 518 1 675 -82 521 -313 985
-671 1347 -369 374 -830 607 -1363 691 -93 15 -448 28 -523 19z m1175 -530
c162 -42 294 -185 325 -353 6 -34 10 -607 10 -1585 0 -1468 -1 -1533 -19
-1572 -36 -80 57 -75 -1248 -72 l-1158 3 -52 27 c-70 37 -120 89 -152 157
l-26 56 -3 1464 c-1 966 1 1484 8 1520 31 167 155 307 314 352 56 16 135 18
1001 18 820 1 948 -1 1000 -15z"/>
<path d="M1706 4158 c-9 -12 -16 -32 -16 -44 0 -36 -37 -73 -81 -80 -74 -12
-69 74 -69 -1139 l0 -1092 23 -21 c13 -12 34 -22 48 -22 40 -1 79 -44 79 -88
0 -10 10 -28 23 -40 l23 -22 825 0 826 0 21 23 c12 13 22 31 22 41 0 43 40 85
81 86 14 0 35 10 47 23 l22 23 0 1090 c0 1212 5 1126 -69 1138 -44 7 -81 44
-81 80 0 12 -7 32 -16 44 l-15 22 -839 0 -839 0 -15 -22z m1618 -137 c18 -33
93 -101 113 -101 11 0 13 -182 13 -1020 l0 -1020 -37 -19 c-43 -22 -64 -42
-87 -88 l-17 -33 -749 0 -749 0 -17 33 c-23 46 -44 66 -86 88 l-38 19 0 1020
c0 838 2 1020 13 1020 20 0 95 68 113 101 l15 29 749 0 749 0 15 -29z"/>
<path d="M2533 3630 c-25 -10 -29 -20 -43 -128 -6 -45 -17 -101 -25 -123 -53
-149 -168 -281 -305 -348 -85 -41 -192 -71 -262 -71 -72 0 -104 -68 -52 -109
18 -14 41 -21 73 -21 105 0 250 -55 339 -127 140 -114 211 -243 233 -423 12
-93 27 -120 69 -120 41 0 57 27 65 105 24 234 157 419 368 515 71 31 148 50
211 50 80 0 123 63 76 110 -13 13 -34 20 -57 20 -71 0 -178 30 -263 71 -190
94 -311 275 -335 506 -4 34 -12 68 -18 76 -16 20 -47 27 -74 17z m67 -433 c47
-84 187 -223 268 -266 l64 -33 -56 -32 c-120 -66 -241 -190 -293 -298 -10 -21
-20 -38 -23 -38 -3 0 -13 17 -23 38 -53 110 -178 238 -295 300 l-55 29 64 34
c82 43 222 182 269 266 19 34 37 62 40 62 3 0 21 -28 40 -62z"/>
<path d="M1457 1319 c-72 -38 -112 -137 -87 -214 16 -47 66 -104 107 -121 27
-12 235 -14 1158 -14 l1125 0 0 185 0 185 -1132 0 c-1110 -1 -1134 -1 -1171
-21z"/>
</g>
</svg>
