<?xml version="1.0" standalone="no"?>
<!DOCTYPE svg PUBLIC "-//W3C//DTD SVG 20010904//EN"
 "http://www.w3.org/TR/2001/REC-SVG-20010904/DTD/svg10.dtd">
<svg version="1.0" xmlns="http://www.w3.org/2000/svg"
 width="512.000000pt" height="512.000000pt" viewBox="0 0 512.000000 512.000000"
 preserveAspectRatio="xMidYMid meet">

<circle cx="256" cy="256" r="400" fill="#000000"/>

<g transform="translate(40.000000,450.000000) scale(0.080000,-0.080000)"
fill="#FFFFFF" stroke="none">
<path d="M4515 5054 c-539 -64 -540 -64 -566 -92 -15 -15 -545 -605 -1178
-1311 l-1152 -1285 133 -133 133 -133 1165 1164 c1025 1025 1170 1166 1208
1177 81 23 158 -23 182 -109 23 -88 89 -17 -1176 -1282 l-1164 -1165 129 -129
129 -129 284 253 c155 139 733 654 1283 1145 1144 1021 1065 949 1065 967 0 7
29 257 65 556 35 299 61 550 58 558 -3 8 -17 14 -32 13 -14 -1 -269 -30 -566
-65z"/>
<path d="M795 2315 l-140 -274 680 -681 c374 -375 688 -686 697 -691 14 -7 76
21 284 127 146 75 268 143 271 151 7 18 -1613 1643 -1637 1643 -10 0 -64 -95
-155 -275z"/>
<path d="M725 1140 l-200 -200 205 -205 205 -205 202 202 203 203 -202 202
c-112 112 -205 203 -208 203 -3 0 -95 -90 -205 -200z"/>
<path d="M152 567 l-152 -153 0 -195 c0 -138 3 -198 12 -207 8 -8 68 -12 203
-12 l190 0 160 160 160 160 -200 200 c-110 110 -205 200 -210 200 -6 0 -79
-69 -163 -153z"/>
</g>
</svg>